<svg width="200" height="200" viewBox="0 0 200 200" fill="none" xmlns="http://www.w3.org/2000/svg">
<g clip-path="url(#clip0_202_10)">
<path opacity="0.64" d="M75 18.75C125 61.9687 150 97.3875 150 125C150 166.419 116.419 200 75 200C33.5813 200 0 166.419 0 125C0 97.3875 25 61.9687 75 18.75Z" fill="url(#paint0_radial_202_10)"/>
<path opacity="0.961" d="M125 181.25C175 138.031 200 102.613 200 75C200 33.5813 166.419 0 125 0C83.5813 0 50 33.5813 50 75C50 102.613 75 138.031 125 181.25Z" fill="url(#paint1_radial_202_10)"/>
</g>
<defs>
<radialGradient id="paint0_radial_202_10" cx="0" cy="0" r="1" gradientUnits="userSpaceOnUse" gradientTransform="translate(16231.4 6540.55) rotate(90.6335) scale(13477.5 19677.4)">
<stop stop-color="#3B82F6" stop-opacity="0.64"/>
<stop offset="1" stop-color="#F472B6" stop-opacity="0.876"/>
</radialGradient>
<radialGradient id="paint1_radial_202_10" cx="0" cy="0" r="1" gradientUnits="userSpaceOnUse" gradientTransform="translate(16212.2 -6363.03) rotate(-90.6335) scale(13477.5 19677.4)">
<stop stop-color="#3B82F6" stop-opacity="0.64"/>
<stop offset="0.50358" stop-color="#D375C2" stop-opacity="0.833"/>
<stop offset="1" stop-color="#FBCFE8" stop-opacity="0.876"/>
</radialGradient>
<clipPath id="clip0_202_10">
<rect width="200" height="200" fill="white"/>
</clipPath>
</defs>
</svg>
