<svg width="24" height="18" xmlns="http://www.w3.org/2000/svg" fill="#3b82f6">
<path d="M20.317 1.492c-1.53-.69-3.17-1.2-4.885-1.49a.075.075 0 0 0-.079.036c-.21.369-.444.85-.608 1.23a18.565 18.565 0 0 0-5.487 0C9.095.88 8.852.406 8.641.037A.077.077 0 0 0 8.562 0c-1.714.29-3.354.8-4.885 1.491a.07.07 0 0 0-.032.027C.533 6.093-.32 10.555.099 14.961a.08.08 0 0 0 .031.055 20.03 20.03 0 0 0 5.993 2.98.078.078 0 0 0 .084-.026c.462-.62.874-1.275 1.226-1.963.021-.04.001-.088-.041-.104a13.202 13.202 0 0 1-1.872-.878.075.075 0 0 1-.008-.125c.126-.093.252-.19.372-.287a.075.075 0 0 1 .078-.01c3.927 1.764 8.18 1.764 12.061 0a.075.075 0 0 1 .078.009c.12.097.246.195.373.288a.075.075 0 0 1-.006.125c-.598.344-1.22.635-1.873.877a.075.075 0 0 0-.041.105c.36.687.772 1.341 1.225 1.962a.077.077 0 0 0 .084.028 19.964 19.964 0 0 0 6.002-2.981.076.076 0 0 0 .032-.054c.5-5.094-.839-9.52-3.549-13.442a.06.06 0 0 0-.031-.028ZM8.02 12.278c-1.183 0-2.157-1.068-2.157-2.38 0-1.312.956-2.38 2.157-2.38 1.21 0 2.176 1.077 2.157 2.38 0 1.312-.956 2.38-2.157 2.38Zm7.975 0c-1.183 0-2.157-1.068-2.157-2.38 0-1.312.955-2.38 2.157-2.38 1.21 0 2.176 1.077 2.157 2.38 0 1.312-.946 2.38-2.157 2.38Z" fill-rule="nonzero"></path>
</svg>