<svg width="12" height="14" xmlns="http://www.w3.org/2000/svg" fill="#059669">
                                            <path d="M5.315.068a.5.5 0 0 0-.745.347A7.31 7.31 0 0 1 3.182 3.6a7.924 7.924 0 0 1-.8.83A6.081 6.081 0 0 0 0 9.035a5.642 5.642 0 0 0 2.865 4.9.5.5 0 0 0 .746-.4 2.267 2.267 0 0 1 .912-1.67 4.067 4.067 0 0 0 1.316-1.4 4.662 4.662 0 0 1 1.819 3.1.5.5 0 0 0 .742.371c1.767-.999 2.86-2.87 2.865-4.9-.001-3.589-2.058-6.688-5.95-8.968Z"></path>
                                        </svg>