<svg width="22" height="22" xmlns="http://www.w3.org/2000/svg" fill="#3b82f6">
<path d="M21.083 0H.917A.917.917 0 0 0 0 .917v20.166c0 .507.41.917.917.917h20.166c.507 0 .917-.41.917-.917V.917A.917.917 0 0 0 21.083 0Zm-2.145 4.686L17.651 5.92a.376.376 0 0 0-.143.361v9.068a.376.376 0 0 0 .143.361l1.257 1.234v.271h-6.322v-.271l1.3-1.264c.128-.128.128-.166.128-.361V7.99l-3.621 9.2h-.489l-4.213-9.2v6.163a.85.85 0 0 0 .233.707l1.694 2.054v.271h-4.8v-.271l1.691-2.054a.82.82 0 0 0 .218-.707V7.027a.625.625 0 0 0-.2-.527L3.019 4.686v-.271h4.674l3.613 7.924 3.176-7.924h4.456v.271Z" fill-rule="nonzero"></path>
</svg>