<svg width="113" height="30" viewBox="0 0 113 30" xmlns="http://www.w3.org/2000/svg"  fill="#6b7280">
                                    <path d="M0 5h3.94v8.21h8.31V5h3.946v20.153H12.25V16.77H3.94v8.383H0V5zm28.678 13.589V9.912h3.736v8.677c0 3.62-3.14 6.564-7 6.564s-7-2.945-7-6.564V9.912h3.736v8.677c0 1.687 1.465 3.06 3.264 3.06 1.799 0 3.264-1.373 3.264-3.06zm14.167-8.575c4.185 0 7.784 3.28 7.784 7.57 0 4.344-3.903 7.569-8.357 7.569-4.006 0-7.573-3.168-7.573-7.794V5h3.75v6.669c1.249-1.15 2.542-1.655 4.396-1.655zm.093 11.886c2.152 0 4.096-1.99 4.096-4.317s-1.944-4.317-4.096-4.317c-2.54 0-4.483 1.99-4.483 4.317s1.943 4.317 4.483 4.317zm13.987-11c0 3.28 8.938.924 8.938 8.493 0 3.505-3.108 5.748-6.964 5.748-2.571 0-4.723-1.01-6.458-3l2.72-2.635c1.017 1.065 1.735 2.074 3.948 2.074 1.404 0 2.629-1.038 2.629-2.214 0-3.814-8.938-1.654-8.938-8.466 0-3.673 2.93-5.888 6.995-5.888 2.033 0 4.513 1.065 5.738 2.607l-2.45 2.691c-.956-.953-2.42-1.738-3.527-1.738-1.375 0-2.63.56-2.63 2.328zm18.808-1.084c4.453 0 8.357 3.224 8.357 7.57 0 4.289-3.6 7.569-7.785 7.569-1.854 0-3.147-.506-4.397-1.655V30H68.16V17.61c0-4.627 3.566-7.794 7.573-7.794zm.666 11.887c2.152 0 4.095-1.992 4.095-4.318 0-2.327-1.943-4.317-4.095-4.317-2.54 0-4.483 1.99-4.483 4.317 0 2.326 1.943 4.318 4.483 4.318zm35.285.197c.42 0 .898-.028 1.316-.055l-.927 3.196c-.359.083-1.017.112-1.496.112-3.197 0-5.527-1.599-5.527-4.767V7.995l3.795-1.598v4.066h3.437v3.083h-3.437v6.083c0 1.374.628 2.271 2.839 2.271zm-10.72-8.125c.702 1.097 1.036 2.295 1.036 3.593v.066c0 1.319-.415 2.518-1.17 3.604-.75 1.082-1.742 1.93-3.01 2.55a8.651 8.651 0 01-3.843.874h-.225c-1.228 0-2.35-.241-3.367-.637a8.644 8.644 0 01-1.439-.708l-3.238 2.913c.077.219.117.45.117.685a2.162 2.162 0 01-.743 1.615 2.674 2.674 0 01-1.797.67 2.672 2.672 0 01-1.796-.67c-.48-.431-.744-1.004-.744-1.615a2.16 2.16 0 01.743-1.615c.698-.631 1.741-.837 2.668-.527l3.133-2.824a6.582 6.582 0 01-1.223-1.91 6.758 6.758 0 01-.516-2.558v-.269c0-1.286.46-2.466 1.214-3.538a7.382 7.382 0 011.335-1.407L78.66 5.95l-.687-.469a3.53 3.53 0 01-1.686.431C74.47 5.912 73 4.588 73 2.956 73 1.323 74.47 0 76.285 0c1.816 0 3.286 1.323 3.286 2.956 0 .272-.06.53-.137.78 3.255 2.222 8.82 6.025 10.517 7.184a9.297 9.297 0 012.618-.738V6.669c-1.097-.42-1.738-1.346-1.738-2.428 0-1.474 1.337-2.668 2.976-2.668 1.637 0 2.952 1.194 2.952 2.668 0 1.082-.68 2.009-1.778 2.428v3.511a8.595 8.595 0 013.009.937c1.256.667 2.26 1.553 2.974 2.658zm-3.956 6.11c.765-.756 1.148-1.59 1.148-2.49 0-.136-.006-.277-.018-.415a3.896 3.896 0 00-.717-1.837 4.181 4.181 0 00-1.598-1.307c-.64-.295-1.318-.422-2.034-.422h-.074c-.79 0-1.5.193-2.163.587a4.23 4.23 0 00-1.562 1.537c-.352.586-.492 1.208-.492 1.863v.202c0 .666.246 1.295.698 1.87.438.587.974 1.05 1.678 1.375.624.295 1.262.457 1.915.457h.188c1.142 0 2.152-.541 3.031-1.42z"></path>
                                </svg>